<?xml version="1.0" encoding="utf-8"?>
<!-- Generator: Adobe Illustrator 22.0.1, SVG Export Plug-In . SVG Version: 6.00 Build 0)  -->
<svg version="1.1" id="Слой_1" xmlns="http://www.w3.org/2000/svg" xmlns:xlink="http://www.w3.org/1999/xlink" x="0px" y="0px"
	 viewBox="0 0 217 61" style="enable-background:new 0 0 217 61;" xml:space="preserve">
<style type="text/css">
	.st0{fill:#652533;}
	.st1{fill:#986D76;}
	.st2{fill:#7B932A;}
	.st3{fill:#672836;}
</style>
<g>
	<g>
		<path class="st0" d="M24.1,32.9L11.8,45.1c-1.1,1.1-1.1,2.9,0,4s2.9,1.1,4,0l12.3-12.3L24.1,32.9z"/>
		<path class="st0" d="M54.9,13.4c-0.7-0.6-1.8-0.5-2.4,0.2l-7.3,7.3l-1.3-1.3l7.3-7.3c0.7-0.7,0.8-1.7,0.2-2.4
			c-0.7-0.8-1.9-0.9-2.6-0.1l-7.4,7.4l-1.3-1.3l7.3-7.3c0.7-0.7,0.8-1.7,0.2-2.4C46.9,5.3,45.7,5.3,45,6l-7.4,7.4l-2.4,2.4
			c-1.5,1.5-1.5,3.9,0,5.3l0.3,0.3l-5,5l4,4l5-5l0.3,0.3c1.5,1.5,3.9,1.5,5.3,0L55,16C55.7,15.3,55.7,14.1,54.9,13.4z"/>
	</g>
	<path class="st1" d="M6.2,8.6C3,11.9,3.7,17.8,7.8,21.9c3.2,3.2,7.5,4.3,10.8,3.1l23,23c1.1,1.1,2.9,1.1,4,0c1.1-1.1,1.1-2.9,0-4
		l-23-23c1.2-3.3,0.1-7.6-3.1-10.8C15.4,6.1,9.5,5.4,6.2,8.6z"/>
	<g>
		<path class="st2" d="M29.8,10.8L29.8,10.8c2.7-2.7,2.7-7.2,0-9.9l0,0C27.1,3.6,27.1,8.1,29.8,10.8z"/>
		<path class="st2" d="M28.3,12.9L28.3,12.9c0-3.9-3.1-7-7-7l0,0C21.2,9.7,24.4,12.9,28.3,12.9z"/>
		<path class="st2" d="M31.4,12.9L31.4,12.9c0-3.9,3.1-7,7-7l0,0C38.5,9.7,35.3,12.9,31.4,12.9z"/>
	</g>
	<g>
		<path class="st2" d="M49.6,32.2L49.6,32.2c2.7,2.7,7.2,2.7,9.9,0l0,0C56.8,29.4,52.3,29.4,49.6,32.2z"/>
		<path class="st2" d="M47.5,30.6L47.5,30.6c3.9,0,7-3.1,7-7l0,0C50.7,23.6,47.5,26.7,47.5,30.6z"/>
		<path class="st2" d="M47.5,33.8L47.5,33.8c3.9,0,7,3.1,7,7v0C50.7,40.8,47.5,37.7,47.5,33.8z"/>
	</g>
	<g>
		<path class="st2" d="M29.8,50.3L29.8,50.3c-2.7,2.7-2.7,7.2,0,9.9h0C32.6,57.5,32.6,53,29.8,50.3z"/>
		<path class="st2" d="M31.4,48.2L31.4,48.2c0,3.9,3.1,7,7,7l0,0C38.5,51.3,35.3,48.2,31.4,48.2z"/>
		<path class="st2" d="M28.3,48.2L28.3,48.2c0,3.9-3.1,7-7,7l0,0C21.2,51.3,24.4,48.2,28.3,48.2z"/>
	</g>
	<g>
		<path class="st2" d="M10.1,32.2L10.1,32.2c-2.7-2.7-7.2-2.7-9.9,0l0,0C2.9,34.9,7.4,34.9,10.1,32.2z"/>
		<path class="st2" d="M12.2,33.8L12.2,33.8c-3.9,0-7,3.1-7,7v0C9,40.8,12.2,37.7,12.2,33.8z"/>
		<path class="st2" d="M12.2,30.6L12.2,30.6c-3.9,0-7-3.1-7-7l0,0C9,23.6,12.2,26.7,12.2,30.6z"/>
	</g>
	<circle class="st3" cx="14" cy="32.2" r="1.1"/>
	<path class="st3" d="M29.8,15.8c-0.6,0-1.1-0.5-1.1-1.1c0-0.6,0.5-1.1,1.1-1.1c0.6,0,1.1,0.5,1.1,1.1C31,15.3,30.5,15.8,29.8,15.8z
		"/>
	<path class="st3" d="M29.8,45.3c0.6,0,1.1,0.5,1.1,1.1c0,0.6-0.5,1.1-1.1,1.1c-0.6,0-1.1-0.5-1.1-1.1
		C28.7,45.8,29.2,45.3,29.8,45.3z"/>
	<path class="st3" d="M44.6,32.2c0-0.6,0.5-1.1,1.1-1.1c0.6,0,1.1,0.5,1.1,1.1c0,0.6-0.5,1.1-1.1,1.1C45.1,33.3,44.6,32.8,44.6,32.2
		z"/>
</g>
<g>
	<path d="M70.5,39.2V21.9c0-0.2,0.2-0.4,0.4-0.4h11.6c0.2,0,0.4,0.2,0.4,0.4v3.5c0,0.2-0.2,0.4-0.4,0.4h-6.6c-0.2,0-0.4,0.2-0.4,0.4
		v2.2c0,0.2,0.2,0.4,0.4,0.4h5.3c0.2,0,0.4,0.2,0.4,0.4v3.2c0,0.2-0.2,0.4-0.4,0.4h-5.3c-0.2,0-0.4,0.2-0.4,0.4v5.9
		c0,0.2-0.2,0.4-0.4,0.4h-4.2C70.7,39.6,70.5,39.4,70.5,39.2z"/>
	<path d="M94.9,39.7c-1.4,0-2.6-0.3-3.8-0.8c-1.1-0.5-2.1-1.2-2.9-2.1c-0.8-0.9-1.4-1.8-1.9-2.9c-0.4-1.1-0.7-2.2-0.7-3.4
		c0-1.2,0.2-2.3,0.7-3.4c0.5-1.1,1.1-2.1,1.9-2.9c0.8-0.8,1.8-1.5,2.9-2c1.1-0.5,2.4-0.8,3.7-0.8c1.4,0,2.6,0.3,3.8,0.8
		c1.1,0.5,2.1,1.2,2.9,2.1c0.8,0.9,1.4,1.9,1.9,3c0.4,1.1,0.7,2.2,0.7,3.4c0,1.2-0.2,2.3-0.7,3.4c-0.5,1.1-1.1,2.1-1.9,2.9
		c-0.8,0.8-1.8,1.5-2.9,2C97.4,39.5,96.2,39.7,94.9,39.7z M90.8,30.5c0,0.6,0.1,1.2,0.3,1.8c0.2,0.6,0.4,1.1,0.8,1.5
		s0.8,0.8,1.3,1.1c0.5,0.3,1.1,0.4,1.9,0.4c0.7,0,1.3-0.1,1.9-0.4c0.5-0.3,1-0.6,1.3-1.1c0.3-0.5,0.6-1,0.7-1.5
		c0.2-0.6,0.2-1.2,0.2-1.8c0-0.6-0.1-1.2-0.3-1.8c-0.2-0.6-0.4-1.1-0.8-1.5c-0.3-0.4-0.8-0.8-1.3-1c-0.5-0.3-1.1-0.4-1.8-0.4
		c-0.7,0-1.3,0.1-1.9,0.4c-0.5,0.3-0.9,0.6-1.3,1.1c-0.3,0.5-0.6,1-0.8,1.5C90.8,29.4,90.8,29.9,90.8,30.5z"/>
	<path d="M116.2,39.7c-1.4,0-2.6-0.3-3.8-0.8c-1.1-0.5-2.1-1.2-2.9-2.1c-0.8-0.9-1.4-1.8-1.9-2.9c-0.4-1.1-0.7-2.2-0.7-3.4
		c0-1.2,0.2-2.3,0.7-3.4c0.5-1.1,1.1-2.1,1.9-2.9s1.8-1.5,2.9-2c1.1-0.5,2.4-0.8,3.7-0.8c1.4,0,2.6,0.3,3.8,0.8
		c1.1,0.5,2.1,1.2,2.9,2.1c0.8,0.9,1.4,1.9,1.9,3c0.4,1.1,0.7,2.2,0.7,3.4c0,1.2-0.2,2.3-0.7,3.4c-0.5,1.1-1.1,2.1-1.9,2.9
		c-0.8,0.8-1.8,1.5-2.9,2C118.8,39.5,117.6,39.7,116.2,39.7z M112.1,30.5c0,0.6,0.1,1.2,0.3,1.8c0.2,0.6,0.4,1.1,0.8,1.5
		c0.3,0.4,0.8,0.8,1.3,1.1s1.1,0.4,1.9,0.4c0.7,0,1.3-0.1,1.9-0.4c0.5-0.3,1-0.6,1.3-1.1c0.3-0.5,0.6-1,0.7-1.5
		c0.2-0.6,0.2-1.2,0.2-1.8c0-0.6-0.1-1.2-0.3-1.8c-0.2-0.6-0.4-1.1-0.8-1.5c-0.3-0.4-0.8-0.8-1.3-1c-0.5-0.3-1.1-0.4-1.8-0.4
		c-0.7,0-1.3,0.1-1.9,0.4c-0.5,0.3-0.9,0.6-1.3,1.1c-0.3,0.5-0.6,1-0.8,1.5C112.2,29.4,112.1,29.9,112.1,30.5z"/>
	<path d="M129.4,39.2V21.9c0-0.2,0.2-0.4,0.4-0.4h6.6c1.5,0,2.8,0.2,4,0.7c1.1,0.5,2.1,1.1,2.9,1.9c0.8,0.8,1.3,1.8,1.7,2.9
		c0.4,1.1,0.6,2.3,0.6,3.5c0,1.4-0.2,2.6-0.7,3.7c-0.4,1.1-1.1,2.1-1.9,2.9c-0.8,0.8-1.8,1.4-2.9,1.8c-1.1,0.4-2.4,0.7-3.8,0.7h-6.6
		C129.6,39.6,129.4,39.4,129.4,39.2z M140.4,30.5c0-0.7-0.1-1.3-0.3-1.9c-0.2-0.6-0.5-1.1-0.8-1.5c-0.3-0.4-0.8-0.7-1.3-1
		c-0.5-0.2-1.1-0.3-1.7-0.3h-1.6c-0.2,0-0.4,0.2-0.4,0.4v8.6c0,0.2,0.2,0.4,0.4,0.4h1.6c0.6,0,1.2-0.1,1.7-0.4
		c0.5-0.2,0.9-0.6,1.3-1c0.3-0.4,0.6-0.9,0.8-1.5C140.4,31.8,140.4,31.2,140.4,30.5z"/>
	<path d="M168,25.8h-4.4c-0.2,0-0.4,0.2-0.4,0.4v13c0,0.2-0.2,0.4-0.4,0.4h-4.2c-0.2,0-0.4-0.2-0.4-0.4v-13c0-0.2-0.2-0.4-0.4-0.4
		h-4.4c-0.2,0-0.4-0.2-0.4-0.4v-3.5c0-0.2,0.2-0.4,0.4-0.4H168c0.2,0,0.4,0.2,0.4,0.4v3.5C168.4,25.6,168.3,25.8,168,25.8z"/>
	<path d="M172.1,39.2V21.9c0-0.2,0.2-0.4,0.4-0.4h4.2c0.2,0,0.4,0.2,0.4,0.4v17.3c0,0.2-0.2,0.4-0.4,0.4h-4.2
		C172.3,39.6,172.1,39.4,172.1,39.2z"/>
	<path d="M194.8,39.2v-7.2c0-0.4-0.6-0.6-0.8-0.2l-2.1,4.7c-0.1,0.1-0.2,0.2-0.4,0.2h-2.1c-0.2,0-0.3-0.1-0.4-0.2l-2.1-4.7
		c-0.2-0.4-0.8-0.3-0.8,0.2v7.2c0,0.2-0.2,0.4-0.4,0.4h-4.2c-0.2,0-0.4-0.2-0.4-0.4V21.9c0-0.2,0.2-0.4,0.4-0.4h4.8
		c0.2,0,0.3,0.1,0.4,0.2l3.4,7.5c0.1,0.3,0.6,0.3,0.7,0l3.4-7.5c0.1-0.1,0.2-0.2,0.4-0.2h4.7c0.2,0,0.4,0.2,0.4,0.4v17.3
		c0,0.2-0.2,0.4-0.4,0.4h-4.2C195,39.6,194.8,39.4,194.8,39.2z"/>
	<path d="M216.7,35.6v3.5c0,0.2-0.2,0.4-0.4,0.4h-12.1c-0.2,0-0.4-0.2-0.4-0.4V21.9c0-0.2,0.2-0.4,0.4-0.4h11.9
		c0.2,0,0.4,0.2,0.4,0.4v3.5c0,0.2-0.2,0.4-0.4,0.4h-6.9c-0.2,0-0.4,0.2-0.4,0.4v1.7c0,0.2,0.2,0.4,0.4,0.4h5.8
		c0.2,0,0.4,0.2,0.4,0.4V32c0,0.2-0.2,0.4-0.4,0.4h-5.8c-0.2,0-0.4,0.2-0.4,0.4v2c0,0.2,0.2,0.4,0.4,0.4h7.1
		C216.5,35.2,216.7,35.4,216.7,35.6z"/>
</g>
</svg>
