<?xml version="1.0" encoding="utf-8"?>
<!-- Generator: Adobe Illustrator 22.0.1, SVG Export Plug-In . SVG Version: 6.00 Build 0)  -->
<svg version="1.1" id="Слой_1" xmlns="http://www.w3.org/2000/svg" xmlns:xlink="http://www.w3.org/1999/xlink" x="0px" y="0px"
	 viewBox="0 0 512 512" style="enable-background:new 0 0 512 512;" xml:space="preserve">
<path d="M344.8,81.4c-7-7.1-18.4-7.2-25.6-0.2c-0.1,0.1-0.2,0.2-0.2,0.2c-7,7.1-7,18.5,0,25.5l130.8,130.8H18.1
	c-9.9,0-18,8-18.1,17.9c0,0.1,0,0.1,0,0.2c0,10.1,8,18.3,18.1,18.3h431.7L319,404.8c-7,7.2-7,18.8,0,25.8c7,7.1,18.4,7.2,25.6,0.2
	c0.1-0.1,0.2-0.2,0.2-0.2l161.8-161.8c7.1-6.8,7.2-18.1,0.4-25.1c-0.1-0.1-0.3-0.3-0.4-0.4L344.8,81.4z"/>
</svg>
