<svg xmlns="http://www.w3.org/2000/svg" viewBox="0 0 57.07 50.55"><defs><style>.cls-1{fill:#2d2d2d;}</style></defs><title>Ресурс 1</title><g id="Слой_2" data-name="Слой 2"><g id="Layer_1" data-name="Layer 1"><path class="cls-1" d="M21.32,41.06a4.75,4.75,0,1,1-4.74,4.74A4.75,4.75,0,0,1,21.32,41.06Z"/><path class="cls-1" d="M42,41.06a4.75,4.75,0,1,1-4.75,4.74A4.74,4.74,0,0,1,42,41.06Z"/><path class="cls-1" d="M54.11,15.05H24.83a2.32,2.32,0,0,0-1.73,2.3,2.61,2.61,0,0,0,1.73,2.46H51.08l-1.47,5H23.8a2.14,2.14,0,0,0-1.61,2.13,2.44,2.44,0,0,0,1.61,2.3H48.3L46.92,33.9H20.27L18.51,19.81l-.58-4.76s-.51-4.38-.8-6.2S12.28,4.75,2.5.14c-2.3-1-4.23,3.25,0,5.45l7.72,3.6s1.79,1.05,1.94,2.44,3.29,24.62,3.29,24.62.13,3.23,3.06,3.23H48a3.13,3.13,0,0,0,2.95-2.57l5.83-17.33S58.47,15.05,54.11,15.05Z"/></g></g></svg>