<?xml version="1.0" encoding="utf-8"?>
<!-- Generator: Adobe Illustrator 22.0.1, SVG Export Plug-In . SVG Version: 6.00 Build 0)  -->
<svg version="1.1" id="Слой_1" xmlns="http://www.w3.org/2000/svg" xmlns:xlink="http://www.w3.org/1999/xlink" x="0px" y="0px"
	 viewBox="0 0 59.6 61" style="enable-background:new 0 0 59.6 61;" xml:space="preserve">
<style type="text/css">
	.st0{fill:#652533;}
	.st1{fill:#986D76;}
	.st2{fill:#7B932A;}
	.st3{fill:#672836;}
</style>
<g>
	<g>
		<path class="st0" d="M24.1,32.9L11.8,45.1c-1.1,1.1-1.1,2.9,0,4s2.9,1.1,4,0l12.3-12.3L24.1,32.9z"/>
		<path class="st0" d="M54.9,13.4c-0.7-0.6-1.8-0.5-2.4,0.2l-7.3,7.3l-1.3-1.3l7.3-7.3c0.7-0.7,0.8-1.7,0.2-2.4
			c-0.7-0.8-1.9-0.9-2.6-0.1l-7.4,7.4l-1.3-1.3l7.3-7.3c0.7-0.7,0.8-1.7,0.2-2.4C46.9,5.3,45.7,5.3,45,6l-7.4,7.4l-2.4,2.4
			c-1.5,1.5-1.5,3.9,0,5.3l0.3,0.3l-5,5l4,4l5-5l0.3,0.3c1.5,1.5,3.9,1.5,5.3,0L55,16C55.7,15.3,55.7,14.1,54.9,13.4z"/>
	</g>
	<path class="st1" d="M6.2,8.6C3,11.9,3.7,17.8,7.8,21.9c3.2,3.2,7.5,4.3,10.8,3.1l23,23c1.1,1.1,2.9,1.1,4,0s1.1-2.9,0-4l-23-23
		c1.2-3.3,0.1-7.6-3.1-10.8C15.4,6.1,9.5,5.4,6.2,8.6z"/>
	<g>
		<path class="st2" d="M29.8,10.8L29.8,10.8c2.7-2.7,2.7-7.2,0-9.9l0,0C27.1,3.6,27.1,8.1,29.8,10.8z"/>
		<path class="st2" d="M28.3,12.9L28.3,12.9c0-3.9-3.1-7-7-7l0,0C21.2,9.7,24.4,12.9,28.3,12.9z"/>
		<path class="st2" d="M31.4,12.9L31.4,12.9c0-3.9,3.1-7,7-7l0,0C38.5,9.7,35.3,12.9,31.4,12.9z"/>
	</g>
	<g>
		<path class="st2" d="M49.6,32.2L49.6,32.2c2.7,2.7,7.2,2.7,9.9,0l0,0C56.8,29.4,52.3,29.4,49.6,32.2z"/>
		<path class="st2" d="M47.5,30.6L47.5,30.6c3.9,0,7-3.1,7-7l0,0C50.7,23.6,47.5,26.7,47.5,30.6z"/>
		<path class="st2" d="M47.5,33.8L47.5,33.8c3.9,0,7,3.1,7,7l0,0C50.7,40.8,47.5,37.7,47.5,33.8z"/>
	</g>
	<g>
		<path class="st2" d="M29.8,50.3L29.8,50.3c-2.7,2.7-2.7,7.2,0,9.9l0,0C32.6,57.5,32.6,53,29.8,50.3z"/>
		<path class="st2" d="M31.4,48.2L31.4,48.2c0,3.9,3.1,7,7,7l0,0C38.5,51.3,35.3,48.2,31.4,48.2z"/>
		<path class="st2" d="M28.3,48.2L28.3,48.2c0,3.9-3.1,7-7,7l0,0C21.2,51.3,24.4,48.2,28.3,48.2z"/>
	</g>
	<g>
		<path class="st2" d="M10.1,32.2L10.1,32.2c-2.7-2.7-7.2-2.7-9.9,0l0,0C2.9,34.9,7.4,34.9,10.1,32.2z"/>
		<path class="st2" d="M12.2,33.8L12.2,33.8c-3.9,0-7,3.1-7,7l0,0C9,40.8,12.2,37.7,12.2,33.8z"/>
		<path class="st2" d="M12.2,30.6L12.2,30.6c-3.9,0-7-3.1-7-7l0,0C9,23.6,12.2,26.7,12.2,30.6z"/>
	</g>
	<circle class="st3" cx="14" cy="32.2" r="1.1"/>
	<path class="st3" d="M29.8,15.8c-0.6,0-1.1-0.5-1.1-1.1s0.5-1.1,1.1-1.1s1.1,0.5,1.1,1.1C31,15.3,30.5,15.8,29.8,15.8z"/>
	<path class="st3" d="M29.8,45.3c0.6,0,1.1,0.5,1.1,1.1s-0.5,1.1-1.1,1.1s-1.1-0.5-1.1-1.1C28.7,45.8,29.2,45.3,29.8,45.3z"/>
	<path class="st3" d="M44.6,32.2c0-0.6,0.5-1.1,1.1-1.1s1.1,0.5,1.1,1.1c0,0.6-0.5,1.1-1.1,1.1S44.6,32.8,44.6,32.2z"/>
</g>
</svg>
