<svg version="1" xmlns="http://www.w3.org/2000/svg" width="1301.333" height="1301.333" viewBox="0 0 976.000000 976.000000"><path d="M484.3 19.2c-28.7 30.6-36.2 81.8-17.8 121.6 3.9 8.4 12.7 21.8 18 27.4l3.5 3.8 3.5-3.8c5.3-5.6 14.1-19 18-27.4 14.7-31.8 13.2-71.2-3.7-101.8-5-9-15.8-23-17.8-23-.3 0-2 1.5-3.7 3.2zM741.5 89.6c-4.7 1.4-10.2 6.8-89.6 86.2-77.7 77.8-84.9 85.3-88.2 91.7-4.8 9.4-6.8 18-6.8 28.7 0 16.2 5.5 29.1 18.2 42.3l3.9 4-39.5 39.5c-21.7 21.7-39.5 39.9-39.5 40.5 0 .6 14.2 15.2 31.5 32.5l31.5 31.5 39.9-39.9 39.9-39.9 7.3 6.2c20.4 17.3 44.1 20.8 66.7 10 8.1-3.9 9.5-5.2 55.9-50.7 26.2-25.7 63.8-62.5 83.5-81.7 19.7-19.3 37.1-37 38.7-39.4 7.2-10.8 5.5-25.7-4.1-35.3-5.2-5.2-10-7.1-18.3-7.1-12.9-.1-10.3-2.3-77.5 64.8L734.5 334l-10.3-10.2-10.2-10.3 60.4-60.5c64.1-64.3 64-64.2 65.3-75 .7-6.3-1.9-14.7-6.2-19.7-1.8-2.1-5.9-5.2-9.1-6.8-7.8-3.9-17.5-4.2-24.4-.6-3.1 1.6-23.9 21.7-65.5 63.2l-61 60.9-10.3-10.2-10.2-10.3 60.4-60.5c65.5-65.7 64.7-64.7 65.4-76.6.6-8.3-2.3-14.9-9.5-21.4-8.3-7.6-17.1-9.6-27.8-6.4zM352.6 102.1c2.2 31.8 17.1 60.1 41.8 79.4 18 14 38 21.8 61.4 24l7.2.6v-6.3c-.1-19.1-8.8-42.9-22.1-60.8-18.3-24.6-49-41.4-80.1-43.7l-8.7-.6.5 7.4zM606.4 96.5c-8.9 1.7-23.5 6.5-31.6 10.6-19.7 9.9-39.1 29.4-49.1 49.4-6 12-11.7 34.3-11.7 45.8v3.9l7.8-.7c28.1-2.5 52.6-13.9 72.1-33.6 18.1-18.4 29.4-42.9 30.8-67.7l.6-9.2-5.9.1c-3.2.1-9.1.7-13 1.4z"/><path d="M173 107.5c-50.7 8.3-85.8 44.1-93 94.5-1.5 10.5-1.3 33.1.4 42.5 3.6 19.9 8.9 36.1 17.8 53.3 25.4 49.6 71.1 88.1 121.9 102.7 26.7 7.7 53.3 8.6 76.8 2.5l12.4-3.2 187.1 187c174.3 174.1 187.5 187.1 193.1 189.5 18.1 7.8 37.9 4.4 51.1-8.7 13.7-13.8 16.7-35.1 7.4-53.7-1.6-3.2-54.7-57-189-191.4l-186.7-187 2.3-7.2c10-30.9 5.1-75.1-12.2-109.6-29-57.7-80.8-98.2-141-110.3-11-2.2-37.6-2.7-48.4-.9zM480.5 219.5c-11.2 6.1-13.4 18.9-4.6 27.6 11.7 11.8 32 2.9 29.6-12.9-.9-6.2-2.8-9.5-7.1-12.8-4.5-3.5-13.3-4.4-17.9-1.9zM95.3 386.8c3.6 50.1 41.9 91.9 92.2 100.7 4.8.8 11 1.5 13.7 1.5 4.5 0 4.8-.2 4.4-2.3-.3-1.2-.7-5.9-1.1-10.4-.7-10.9-4.5-23.6-10.5-35.8-14-28.2-39.1-49.2-69.2-57.9-8.5-2.4-21.1-4.6-27-4.6h-3.1l.6 8.8zM868 379.1c-36.8 5.8-69.9 30-84.7 61.9-7 14.9-11.3 31.4-11.3 43.1v4.9h4.8c11.7 0 32.5-5.6 45.9-12.4 15-7.5 31.9-22.7 41.7-37.5 9-13.4 15.5-31.4 17.6-48.1 1.6-13.5 1.8-13-3.7-12.9-2.7.1-7.3.5-10.3 1zM871.9 483c-22.7 2.6-43.6 12.1-61.5 27.9l-4.9 4.3 4 3.5c11.4 10 27.8 19.2 41 23.2 8.9 2.7 25 5.1 34 5.1 15.3 0 36-4.8 49-11.2 8.2-4.1 21.3-13 25.5-17.2 3.3-3.5 3.3-3.6 1.4-5.7-3.1-3.5-16.9-13.5-23.8-17.4-17.8-9.9-43.4-14.9-64.7-12.5zM83.8 484.1c-15.7 1.3-26.4 4.3-40.2 11.1-9.7 4.8-17.1 9.6-23.7 15.6l-5.1 4.5 4.8 4.1c16.3 14.1 35.6 22.9 56.5 26 13.4 2 21.4 2 34.8 0 21.3-3.1 39.8-11.7 57-26.5l4.2-3.7-4.8-4.2c-22.1-19.6-52.8-29.5-83.5-26.9zM227.4 499.4c-5.4 2.4-8.8 7.9-9.2 15-.4 7.1 1.3 10.6 7.4 15.2 3 2.4 4.7 2.9 9.3 2.9 7 0 11.7-2.7 15-8.5 5-8.9 1.8-20-7.1-24.6-3.4-1.8-11.3-1.7-15.4 0zM734.5 499.9c-9.5 5.8-12.1 16.3-6.2 25.2 2.6 3.9 9.7 7.9 14.2 7.9 7.4 0 15.7-7.1 17.1-14.6 1.4-7.4-2.7-15.3-9.7-19-4-2-11.8-1.8-15.4.5z"/><path d="M296.3 625.9C191.1 730.3 192.2 729.1 188.5 741.7c-1.9 6.6-1.9 17.5 0 24.1 8.3 27.8 38.3 40.5 65 27.4 4-1.9 25.8-23.2 106-103.4l101-100.9-31.5-31c-17.3-17-31.8-30.9-32.2-30.9-.3 0-45.5 44.5-100.5 98.9zM193.2 542.1c-36.7 4.3-69.7 27.2-86.2 59.9-6.7 13.2-12 33.2-12 45.1v4.9h5.4c16 0 38.8-7.6 55.1-18.5 23.4-15.5 40.1-39 46.9-66.1 1.6-6.3 3.6-24.3 2.9-25.7-.5-.8-2-.8-12.1.4zM772 545.8c0 7.2 2.7 21.4 5.7 30.1 14.4 42.2 53.8 73.1 96.7 75.8l8.9.6-.7-7.4c-2-20.7-7.8-37.9-18.3-53.8-19-28.7-49.2-46.3-85-49.6l-7.3-.6v4.9zM479.8 727c-12.9 6.9-11.8 25.9 1.9 31.6 12.3 5.2 26.3-6.7 23.4-19.8-2.6-11.2-15.2-17.1-25.3-11.8zM441.5 774c-29.5 6.2-54.9 23.2-71.1 47.5-6.1 9.2-12 22.4-14.8 33.1-1.7 6.5-3.8 26.3-2.9 27.7.5.8 5.8.4 18.5-1.4 8.2-1.1 23.1-6 31.8-10.4 33.4-17 57.3-52.4 59.7-88.8l.6-9.7-6.4.1c-3.5 0-10.4.9-15.4 1.9zM514 775.6c0 17.9 8.8 43.4 20.7 60.1 19.4 27.4 48.6 43.7 83.7 46.8l6.9.6-.6-9.8c-2-37-25.4-72.1-59.2-89.1-13.9-6.9-33.7-12.2-46.1-12.2H514v3.6zM480.8 814c-11.1 13.8-19.7 32.4-22.3 48-2.3 14.4-2.7 22.1-1.5 33 2 17.8 4.5 26.5 12.6 42 4.2 8.2 16.6 25 18.4 25 1.9 0 14.2-15.9 18.9-24.5 10.1-18.2 13.6-32.5 13.5-54-.1-21.5-4.3-37.6-14.5-54.8-5.7-9.7-16-22.7-18-22.7-.4 0-3.6 3.6-7.1 8z"/></svg>