<svg id="Слой_1" xmlns="http://www.w3.org/2000/svg" viewBox="0 0 217 61"><style>.st0{fill:#652533}.st1{fill:#986d76}.st2{fill:#7b932a}.st3{fill:#672836}</style><path class="st0" d="M24.1 32.9L11.8 45.1c-1.1 1.1-1.1 2.9 0 4s2.9 1.1 4 0l12.3-12.3-4-3.9zm30.8-19.5c-.7-.6-1.8-.5-2.4.2l-7.3 7.3-1.3-1.3 7.3-7.3c.7-.7.8-1.7.2-2.4-.7-.8-1.9-.9-2.6-.1l-7.4 7.4-1.3-1.3 7.3-7.3c.7-.7.8-1.7.2-2.4-.7-.9-1.9-.9-2.6-.2l-7.4 7.4-2.4 2.4c-1.5 1.5-1.5 3.9 0 5.3l.3.3-5 5 4 4 5-5 .3.3c1.5 1.5 3.9 1.5 5.3 0L55 16c.7-.7.7-1.9-.1-2.6z"/><path class="st1" d="M6.2 8.6C3 11.9 3.7 17.8 7.8 21.9c3.2 3.2 7.5 4.3 10.8 3.1l23 23c1.1 1.1 2.9 1.1 4 0s1.1-2.9 0-4l-23-23c1.2-3.3.1-7.6-3.1-10.8-4.1-4.1-10-4.8-13.3-1.6z"/><path class="st2" d="M29.8 10.8c2.7-2.7 2.7-7.2 0-9.9-2.7 2.7-2.7 7.2 0 9.9zm-1.5 2.1c0-3.9-3.1-7-7-7-.1 3.8 3.1 7 7 7zm3.1 0c0-3.9 3.1-7 7-7 .1 3.8-3.1 7-7 7zm18.2 19.3c2.7 2.7 7.2 2.7 9.9 0-2.7-2.8-7.2-2.8-9.9 0zm-2.1-1.6c3.9 0 7-3.1 7-7-3.8 0-7 3.1-7 7zm0 3.2c3.9 0 7 3.1 7 7-3.8 0-7-3.1-7-7zM29.8 50.3c-2.7 2.7-2.7 7.2 0 9.9 2.8-2.7 2.8-7.2 0-9.9zm1.6-2.1c0 3.9 3.1 7 7 7 .1-3.9-3.1-7-7-7zm-3.1 0c0 3.9-3.1 7-7 7-.1-3.9 3.1-7 7-7zm-18.2-16c-2.7-2.7-7.2-2.7-9.9 0 2.7 2.7 7.2 2.7 9.9 0zm2.1 1.6c-3.9 0-7 3.1-7 7 3.8 0 7-3.1 7-7zm0-3.2c-3.9 0-7-3.1-7-7 3.8 0 7 3.1 7 7z"/><circle class="st3" cx="14" cy="32.2" r="1.1"/><path class="st3" d="M29.8 15.8c-.6 0-1.1-.5-1.1-1.1 0-.6.5-1.1 1.1-1.1.6 0 1.1.5 1.1 1.1.1.6-.4 1.1-1.1 1.1zm0 29.5c.6 0 1.1.5 1.1 1.1 0 .6-.5 1.1-1.1 1.1-.6 0-1.1-.5-1.1-1.1 0-.6.5-1.1 1.1-1.1zm14.8-13.1c0-.6.5-1.1 1.1-1.1.6 0 1.1.5 1.1 1.1 0 .6-.5 1.1-1.1 1.1-.6 0-1.1-.5-1.1-1.1z"/><path d="M70.5 39.2V21.9c0-.2.2-.4.4-.4h11.6c.2 0 .4.2.4.4v3.5c0 .2-.2.4-.4.4h-6.6c-.2 0-.4.2-.4.4v2.2c0 .2.2.4.4.4h5.3c.2 0 .4.2.4.4v3.2c0 .2-.2.4-.4.4h-5.3c-.2 0-.4.2-.4.4v5.9c0 .2-.2.4-.4.4h-4.2c-.2.1-.4-.1-.4-.3zm24.4.5c-1.4 0-2.6-.3-3.8-.8-1.1-.5-2.1-1.2-2.9-2.1-.8-.9-1.4-1.8-1.9-2.9-.4-1.1-.7-2.2-.7-3.4 0-1.2.2-2.3.7-3.4.5-1.1 1.1-2.1 1.9-2.9.8-.8 1.8-1.5 2.9-2 1.1-.5 2.4-.8 3.7-.8 1.4 0 2.6.3 3.8.8 1.1.5 2.1 1.2 2.9 2.1.8.9 1.4 1.9 1.9 3 .4 1.1.7 2.2.7 3.4 0 1.2-.2 2.3-.7 3.4-.5 1.1-1.1 2.1-1.9 2.9-.8.8-1.8 1.5-2.9 2-1.2.5-2.4.7-3.7.7zm-4.1-9.2c0 .6.1 1.2.3 1.8.2.6.4 1.1.8 1.5s.8.8 1.3 1.1c.5.3 1.1.4 1.9.4.7 0 1.3-.1 1.9-.4.5-.3 1-.6 1.3-1.1.3-.5.6-1 .7-1.5.2-.6.2-1.2.2-1.8 0-.6-.1-1.2-.3-1.8-.2-.6-.4-1.1-.8-1.5-.3-.4-.8-.8-1.3-1-.5-.3-1.1-.4-1.8-.4s-1.3.1-1.9.4c-.5.3-.9.6-1.3 1.1-.3.5-.6 1-.8 1.5-.2.6-.2 1.1-.2 1.7zm25.4 9.2c-1.4 0-2.6-.3-3.8-.8-1.1-.5-2.1-1.2-2.9-2.1-.8-.9-1.4-1.8-1.9-2.9-.4-1.1-.7-2.2-.7-3.4 0-1.2.2-2.3.7-3.4.5-1.1 1.1-2.1 1.9-2.9s1.8-1.5 2.9-2c1.1-.5 2.4-.8 3.7-.8 1.4 0 2.6.3 3.8.8 1.1.5 2.1 1.2 2.9 2.1.8.9 1.4 1.9 1.9 3 .4 1.1.7 2.2.7 3.4 0 1.2-.2 2.3-.7 3.4-.5 1.1-1.1 2.1-1.9 2.9-.8.8-1.8 1.5-2.9 2-1.1.5-2.3.7-3.7.7zm-4.1-9.2c0 .6.1 1.2.3 1.8.2.6.4 1.1.8 1.5.3.4.8.8 1.3 1.1s1.1.4 1.9.4c.7 0 1.3-.1 1.9-.4.5-.3 1-.6 1.3-1.1.3-.5.6-1 .7-1.5.2-.6.2-1.2.2-1.8 0-.6-.1-1.2-.3-1.8-.2-.6-.4-1.1-.8-1.5-.3-.4-.8-.8-1.3-1-.5-.3-1.1-.4-1.8-.4s-1.3.1-1.9.4c-.5.3-.9.6-1.3 1.1-.3.5-.6 1-.8 1.5-.1.6-.2 1.1-.2 1.7zm17.3 8.7V21.9c0-.2.2-.4.4-.4h6.6c1.5 0 2.8.2 4 .7 1.1.5 2.1 1.1 2.9 1.9.8.8 1.3 1.8 1.7 2.9.4 1.1.6 2.3.6 3.5 0 1.4-.2 2.6-.7 3.7-.4 1.1-1.1 2.1-1.9 2.9-.8.8-1.8 1.4-2.9 1.8-1.1.4-2.4.7-3.8.7h-6.6c-.1 0-.3-.2-.3-.4zm11-8.7c0-.7-.1-1.3-.3-1.9-.2-.6-.5-1.1-.8-1.5-.3-.4-.8-.7-1.3-1-.5-.2-1.1-.3-1.7-.3h-1.6c-.2 0-.4.2-.4.4v8.6c0 .2.2.4.4.4h1.6c.6 0 1.2-.1 1.7-.4.5-.2.9-.6 1.3-1 .3-.4.6-.9.8-1.5.3-.5.3-1.1.3-1.8zm27.6-4.7h-4.4c-.2 0-.4.2-.4.4v13c0 .2-.2.4-.4.4h-4.2c-.2 0-.4-.2-.4-.4v-13c0-.2-.2-.4-.4-.4h-4.4c-.2 0-.4-.2-.4-.4v-3.5c0-.2.2-.4.4-.4H168c.2 0 .4.2.4.4v3.5c0 .2-.1.4-.4.4zm4.1 13.4V21.9c0-.2.2-.4.4-.4h4.2c.2 0 .4.2.4.4v17.3c0 .2-.2.4-.4.4h-4.2c-.2 0-.4-.2-.4-.4zm22.7 0V32c0-.4-.6-.6-.8-.2l-2.1 4.7c-.1.1-.2.2-.4.2h-2.1c-.2 0-.3-.1-.4-.2l-2.1-4.7c-.2-.4-.8-.3-.8.2v7.2c0 .2-.2.4-.4.4h-4.2c-.2 0-.4-.2-.4-.4V21.9c0-.2.2-.4.4-.4h4.8c.2 0 .3.1.4.2l3.4 7.5c.1.3.6.3.7 0l3.4-7.5c.1-.1.2-.2.4-.2h4.7c.2 0 .4.2.4.4v17.3c0 .2-.2.4-.4.4h-4.2c-.1 0-.3-.2-.3-.4zm21.9-3.6v3.5c0 .2-.2.4-.4.4h-12.1c-.2 0-.4-.2-.4-.4V21.9c0-.2.2-.4.4-.4h11.9c.2 0 .4.2.4.4v3.5c0 .2-.2.4-.4.4h-6.9c-.2 0-.4.2-.4.4v1.7c0 .2.2.4.4.4h5.8c.2 0 .4.2.4.4V32c0 .2-.2.4-.4.4h-5.8c-.2 0-.4.2-.4.4v2c0 .2.2.4.4.4h7.1c.2 0 .4.2.4.4z"/></svg>